<?xml version="1.0" encoding="utf-8"?>
<svg viewBox="0 0 512 512" xmlns="http://www.w3.org/2000/svg">
  <path d="M256,0C114.608,0,0,114.608,0,256s114.608,256,256,256s256-114.608,256-256S397.392,0,256,0z M256,496 C123.664,496,16,388.336,16,256S123.664,16,256,16s240,107.664,240,240S388.336,496,256,496z" style="fill: rgb(255, 255, 255);"/>
  <rect x="139.704" y="130.327" width="34.427" height="244.756" style="fill: rgb(255, 255, 255);" transform="matrix(1, 0, 0, 1, 30.252005, 3.897992)"/>
  <rect x="274.131" y="130.327" width="34.427" height="244.756" style="fill: rgb(255, 255, 255);" transform="matrix(1, 0, 0, 1, 30.252005, 3.897992)"/>
</svg>